<?xml version="1.0" standalone="no"?>
<!DOCTYPE svg PUBLIC "-//W3C//DTD SVG 20010904//EN"
 "http://www.w3.org/TR/2001/REC-SVG-20010904/DTD/svg10.dtd">
<svg version="1.0" xmlns="http://www.w3.org/2000/svg"
 width="1000.000000pt" height="1000.000000pt" viewBox="0 0 1000.000000 1000.000000"
 preserveAspectRatio="xMidYMid meet">
<metadata>
Created by potrace 1.14, written by Peter Selinger 2001-2017
</metadata>
<g transform="translate(0.000000,1000.000000) scale(0.100000,-0.100000)"
fill="#000000" stroke="none">
<path d="M4220 7120 c-82 -11 -119 -18 -180 -35 -30 -9 -62 -17 -70 -19 -37
-9 -207 -88 -271 -126 -152 -90 -348 -258 -454 -390 -218 -270 -345 -561 -389
-892 -14 -100 -15 -374 -2 -428 6 -24 9 -40 21 -101 19 -103 85 -265 147 -368
141 -231 382 -414 641 -487 291 -81 705 -36 991 108 32 16 59 28 61 26 2 -2
-1 -23 -6 -48 -5 -25 -11 -115 -14 -200 -6 -200 13 -333 70 -499 114 -334 370
-590 700 -700 93 -31 125 -38 235 -51 68 -8 303 -5 355 5 31 6 114 22 150 29
30 6 157 46 180 56 11 5 49 21 85 36 207 89 415 252 553 435 l28 37 -43 33
c-24 18 -45 36 -48 39 -3 3 -38 32 -78 64 l-74 60 -36 -45 c-67 -83 -197 -205
-272 -256 -124 -83 -299 -155 -430 -177 -19 -3 -46 -8 -60 -11 -48 -10 -245
-7 -310 4 -189 34 -333 111 -456 244 -220 237 -294 568 -213 946 89 412 381
802 734 979 146 74 270 104 421 104 159 0 302 -29 414 -86 113 -56 167 -155
159 -289 -3 -33 0 -57 6 -58 6 0 28 -2 50 -4 22 -2 86 -6 142 -8 l102 -5 7 56
c4 30 4 92 0 138 -20 258 -147 400 -448 498 -143 47 -229 60 -403 60 -161 0
-257 -15 -395 -60 -288 -96 -584 -319 -782 -589 -120 -164 -174 -229 -248
-298 -393 -368 -1001 -416 -1344 -106 -207 189 -307 450 -293 767 13 276 101
531 264 765 68 98 81 113 169 202 157 158 326 262 512 316 156 45 344 43 526
-6 86 -23 180 -71 211 -106 55 -66 69 -108 70 -201 0 -49 2 -88 5 -89 11 -1
131 -9 211 -13 l87 -4 5 31 c3 18 4 79 2 137 -3 114 -26 199 -72 274 -31 50
-113 136 -129 136 -7 0 -14 3 -16 8 -5 12 -120 68 -196 96 -68 24 -156 46
-242 61 -54 10 -279 13 -340 5z"/>
</g>
</svg>
